<svg width="186" height="38" viewBox="0 0 186 38" fill="none" xmlns="http://www.w3.org/2000/svg">
<path d="M10.3652 8.87061C10.3263 8.81773 10.2873 8.76486 10.2375 8.69629C10.2218 8.67192 10.2144 8.66823 10.2043 8.66954C10.1852 8.64247 10.1661 8.61539 10.1317 8.56957C9.95976 8.37064 9.8032 8.19046 9.64664 8.01028C9.64664 8.01028 9.63428 8.01036 9.63739 7.99679C9.48074 7.78642 9.32283 7.58816 9.15962 7.39406C9.12788 7.35631 9.07628 7.31115 9.03261 7.30991C8.86458 7.30514 8.69523 7.28108 8.53109 7.35711C7.56689 7.80371 6.67761 8.35697 5.88842 9.05882C4.59797 10.2064 3.6664 11.5795 3.10744 13.1871C2.94258 13.6612 2.79376 14.1403 2.72865 14.6393C2.72381 14.6568 2.71897 14.6743 2.7079 14.7155C2.69894 14.772 2.69621 14.8047 2.69349 14.8375C2.68646 14.867 2.67944 14.8965 2.66539 14.9536C2.65304 15.052 2.64773 15.1229 2.64241 15.1937C2.63845 15.2113 2.63448 15.2288 2.6244 15.2729C2.60263 15.4491 2.58698 15.5988 2.57134 15.7485C2.56842 16.2251 2.5655 16.7018 2.56368 17.21C2.57426 17.298 2.58374 17.3546 2.59322 17.4111C2.59646 17.4671 2.59969 17.5231 2.60561 17.6061C2.61738 17.6646 2.62646 17.6961 2.63554 17.7276C2.63984 17.7838 2.64413 17.84 2.65135 17.921C2.66149 17.9656 2.66873 17.9853 2.67596 18.0051C2.67875 18.0483 2.68154 18.0914 2.68704 18.1594C2.69797 18.204 2.70621 18.2238 2.71444 18.2436C2.7285 18.3393 2.74255 18.435 2.76045 18.558C2.77633 18.6161 2.78837 18.647 2.80041 18.6779C2.883 18.9892 2.94426 19.3076 3.0534 19.6099C3.20328 20.0251 3.38945 20.428 3.56968 20.8599C3.60279 20.9195 3.6263 20.9554 3.64981 20.9912C3.66753 21.0337 3.68525 21.0762 3.71026 21.1363C3.72095 21.1636 3.72798 21.1692 3.73862 21.1703C3.73862 21.1703 3.73757 21.1734 3.74015 21.1864C3.76704 21.2337 3.79134 21.2681 3.81566 21.3024C4.0502 21.6648 4.28476 22.0273 4.52917 22.4043C4.53904 22.4189 4.54673 22.4268 4.54673 22.4268L4.55795 22.4263C4.55795 22.4263 4.55899 22.4357 4.56683 22.4498C4.64905 22.5523 4.72344 22.6406 4.79784 22.7289C4.83227 22.7753 4.86671 22.8217 4.91568 22.8865C5.16055 23.1462 5.38639 23.3917 5.62302 23.6269C5.74989 23.7531 5.89531 23.8618 6.03236 23.9784C6.04225 23.9906 6.05214 24.0028 6.07787 24.0303C6.12673 24.0661 6.15976 24.0867 6.19279 24.1072C6.20173 24.1177 6.21066 24.1282 6.23577 24.1533C6.45136 24.3127 6.65078 24.4574 6.85019 24.6021C6.91666 24.6485 6.98312 24.6949 7.06921 24.7552C7.1177 24.7862 7.14659 24.8033 7.17549 24.8204C7.25321 24.9156 7.18699 25.0116 7.17084 25.1308C7.16401 25.1751 7.16326 25.1959 7.16252 25.2167C7.12662 25.3778 7.09071 25.5389 7.04885 25.7243C7.0422 25.7695 7.04148 25.7902 7.04077 25.8109C6.99012 26.0376 6.93946 26.2643 6.88228 26.5155C6.87337 26.5611 6.87101 26.5822 6.86864 26.6032C6.86284 26.6206 6.85703 26.638 6.84472 26.6774C6.83619 26.7201 6.8342 26.741 6.83219 26.7618C6.80955 26.8562 6.78691 26.9506 6.75575 27.0728C6.7316 27.1675 6.72389 27.2375 6.69696 27.2998C6.68345 27.331 6.63493 27.3481 6.60223 27.3716C6.53024 27.3274 6.45825 27.2832 6.3644 27.2263C6.29475 27.1902 6.24694 27.1667 6.19914 27.1433C6.13253 27.0988 6.06591 27.0542 5.97926 26.9957C5.87404 26.9338 5.78889 26.8857 5.70372 26.8376C5.67187 26.8133 5.64002 26.789 5.58956 26.7509C5.53353 26.7171 5.49609 26.6972 5.45867 26.6773C5.37247 26.6146 5.28626 26.5518 5.18051 26.4739C5.08182 26.4019 5.00268 26.3452 4.92353 26.2885C4.90887 26.2738 4.89421 26.2592 4.86302 26.2311C4.81808 26.2005 4.78966 26.1833 4.76125 26.1661C4.73569 26.1428 4.71014 26.1195 4.67197 26.0846C4.65352 26.0653 4.64609 26.0634 4.63704 26.0673C4.63704 26.0673 4.62871 26.0538 4.62323 26.0472C4.61773 26.0407 4.60713 26.0423 4.60713 26.0423C4.53706 25.9819 4.46698 25.9216 4.38466 25.8495C4.37243 25.8379 4.35728 25.8373 4.35728 25.8373C3.99769 25.4882 3.6381 25.139 3.26986 24.7795C3.26122 24.7691 3.25125 24.7683 3.25125 24.7683C3.19134 24.6965 3.13142 24.6247 3.05576 24.5341C3.00324 24.4811 2.96645 24.4467 2.92967 24.4124C2.92967 24.4124 2.92411 24.4239 2.92457 24.4057C2.87134 24.3304 2.81766 24.2733 2.76398 24.2163C2.76398 24.2163 2.75954 24.2251 2.76024 24.2088C2.73261 24.1618 2.70427 24.1311 2.67593 24.1004C2.64328 24.0529 2.61062 24.0054 2.56393 23.9393C2.51056 23.8754 2.47124 23.8301 2.43192 23.7849C2.43192 23.7849 2.42972 23.79 2.42898 23.7747C2.37841 23.6993 2.32856 23.6392 2.27872 23.579C2.27872 23.579 2.26993 23.5769 2.27189 23.5646C2.22822 23.4906 2.18259 23.429 2.13695 23.3673C2.07962 23.2747 2.0223 23.1821 1.95198 23.0705C1.92427 23.034 1.90955 23.0165 1.89482 22.999C1.89482 22.999 1.89563 22.9976 1.89261 22.9841C1.80935 22.8475 1.72909 22.7246 1.64883 22.6016C1.64049 22.5803 1.63215 22.559 1.6135 22.517C1.56553 22.4356 1.52788 22.3748 1.49023 22.3141C1.48399 22.2951 1.47776 22.2761 1.4647 22.2428C1.45788 22.2284 1.44315 22.2204 1.44315 22.2204C1.43851 22.2061 1.43387 22.1918 1.41844 22.1586C1.39344 22.1205 1.37924 22.1013 1.36503 22.0821C1.28727 21.9194 1.20952 21.7566 1.12277 21.5698C1.08893 21.5011 1.06407 21.4565 1.03923 21.4119C1.01743 21.3524 0.99563 21.293 0.963904 21.2095C0.914913 21.0979 0.875846 21.0103 0.83678 20.9228C0.83678 20.9228 0.837778 20.9086 0.833895 20.8906C0.815872 20.8438 0.801731 20.815 0.787588 20.7862C0.787176 20.7782 0.786763 20.7701 0.781318 20.7381C0.750651 20.657 0.725015 20.6 0.699379 20.543C0.659754 20.4196 0.620128 20.2962 0.574767 20.1487C0.558798 20.1057 0.548566 20.0868 0.538333 20.0679C0.505776 19.9436 0.473221 19.8192 0.432895 19.6684C0.409843 19.5985 0.39456 19.5551 0.379276 19.5117C0.361669 19.4256 0.344061 19.3394 0.322792 19.2307C0.31181 19.1927 0.304489 19.1771 0.297169 19.1615C0.294151 19.1295 0.291132 19.0975 0.284201 19.0408C0.271131 18.9969 0.261975 18.9776 0.252819 18.9584C0.251599 18.9399 0.250379 18.9215 0.245544 18.8801C0.233014 18.8377 0.224097 18.8182 0.215181 18.7988C0.211057 18.7556 0.206934 18.7124 0.199168 18.6449C0.187393 18.6011 0.179262 18.5816 0.171129 18.5622C0.159215 18.4665 0.1473 18.3707 0.132913 18.2443C0.122687 18.1839 0.114935 18.1543 0.111433 18.1146C0.108187 18.0851 0.100689 18.0655 0.0952598 18.03C0.0904452 17.9718 0.0835657 17.9297 0.0800615 17.8731C0.0723824 17.8024 0.0613278 17.7463 0.0502721 17.6901C0.0464456 17.6081 0.0426192 17.5262 0.0373362 17.4135C0.0268363 17.3137 0.0177942 17.2445 0.0087522 17.1754C0.00725061 16.8836 0.00575026 16.5918 0.00521184 16.2658C0.004115 16.1759 0.00205751 16.12 0 16.0642C0.00519061 15.9701 0.0103812 15.876 0.0204076 15.7518C0.0262779 15.6511 0.0273122 15.5805 0.0283478 15.5099C0.0375935 15.429 0.0468391 15.3481 0.0614802 15.239C0.0671244 15.1675 0.0673717 15.1242 0.0747623 15.065C0.0854258 14.9913 0.0889461 14.9336 0.0993948 14.8674C0.104591 14.8386 0.102858 14.8182 0.109422 14.7843C0.119632 14.7397 0.121548 14.7087 0.123463 14.6777C0.128029 14.6593 0.132594 14.6409 0.140483 14.6062C0.143804 14.5898 0.146629 14.5795 0.146629 14.5795L0.136915 14.5746C0.149453 14.5153 0.161992 14.4559 0.180237 14.3701C0.185351 14.3229 0.184759 14.3023 0.184166 14.2817C0.199415 14.2151 0.214664 14.1485 0.238966 14.0523C0.259088 13.9527 0.270159 13.8826 0.28123 13.8125C0.28123 13.8125 0.283018 13.8015 0.288953 13.7912C0.300368 13.7498 0.305848 13.7187 0.311329 13.6876C0.333788 13.6055 0.356246 13.5234 0.385634 13.4176C0.394726 13.3727 0.396889 13.3517 0.406622 13.3186C0.418265 13.2789 0.422339 13.2512 0.426412 13.2236C0.439246 13.1896 0.452081 13.1557 0.473641 13.0969C0.51188 12.9782 0.540078 12.8838 0.571162 12.7904C0.651869 12.5478 0.733846 12.3056 0.815317 12.0632C0.834342 12.0201 0.853368 11.9771 0.883292 11.9107C1.02543 11.5905 1.15666 11.2937 1.2879 10.9969C1.31376 10.9524 1.33961 10.9078 1.37778 10.8427C1.4101 10.7751 1.43008 10.7281 1.45007 10.6811C1.45007 10.6811 1.44895 10.6772 1.46049 10.6719C1.74969 10.2247 2.02224 9.77982 2.30722 9.34252C2.44384 9.13285 2.60398 8.93753 2.75347 8.73572C2.75347 8.73572 2.7552 8.73609 2.76695 8.72947C3.25099 8.16232 3.75103 7.62729 4.31788 7.15363C4.50733 6.99533 4.69666 6.8369 4.88605 6.67853C4.88605 6.67853 4.88356 6.67657 4.89841 6.67486C4.9625 6.6379 5.01217 6.60321 5.0609 6.56732C5.75714 6.05463 6.4998 5.61508 7.28591 5.2439C8.51543 4.66334 9.81457 4.31222 11.1657 4.12171C12.4106 3.94619 13.6531 3.96382 14.8916 4.15323C15.9719 4.31846 17.0172 4.61156 18.0211 5.03778C19.6916 5.74698 21.1541 6.73748 22.3836 8.0452C22.5529 8.22531 22.7224 8.40533 22.8917 8.58539C22.9369 8.64588 22.9821 8.70637 23.0426 8.78636C23.2079 8.99424 23.3579 9.18262 23.5079 9.371C23.5079 9.371 23.5092 9.37005 23.511 9.38337C23.5507 9.44542 23.5884 9.49415 23.6261 9.54289C23.6349 9.56144 23.6436 9.57999 23.6643 9.61669C23.7284 9.70645 23.7806 9.77807 23.8327 9.84969C23.8327 9.84969 23.835 9.8452 23.835 9.85956C23.8681 9.92096 23.9013 9.968 23.9345 10.015C23.9587 10.0604 23.9828 10.1057 24.0207 10.1732C24.2261 10.5415 24.4179 10.8875 24.6097 11.2336C24.6337 11.292 24.6577 11.3505 24.691 11.4323C24.7248 11.5003 24.7494 11.5449 24.774 11.5896C24.7911 11.6375 24.8082 11.6855 24.836 11.7575C24.8775 11.8495 24.9084 11.9174 24.9393 11.9853C24.9631 12.0566 24.9868 12.128 25.019 12.2244C25.0519 12.307 25.0765 12.3646 25.101 12.4221C25.1132 12.4664 25.1254 12.5107 25.1445 12.5818C25.1904 12.7176 25.2295 12.8267 25.2684 12.9357C25.2923 13.0326 25.3163 13.1295 25.3466 13.2521C25.3663 13.3089 25.3793 13.34 25.3923 13.3711C25.4281 13.5338 25.4638 13.6965 25.5057 13.8876C25.5267 13.9719 25.5417 14.0279 25.5568 14.0839C25.5749 14.2059 25.593 14.3279 25.6146 14.4748C25.6256 14.5193 25.6331 14.539 25.6405 14.5586C25.644 14.6146 25.6474 14.6706 25.6537 14.7571C25.6782 14.9095 25.6998 15.0313 25.7214 15.1532C25.7211 15.1712 25.7207 15.1891 25.7219 15.2369C25.7367 15.374 25.7498 15.4813 25.7629 15.5887C25.7637 15.6441 25.7645 15.6995 25.7655 15.7893C25.7729 16.1814 25.7799 16.5392 25.7869 16.8971C25.7772 17.0304 25.7675 17.1637 25.7525 17.3286C25.7416 17.4566 25.7358 17.5532 25.7301 17.6498C25.7257 17.6796 25.7211 17.7093 25.7106 17.7667C25.69 17.918 25.6753 18.0418 25.6608 18.1655C25.6521 18.2202 25.6434 18.2748 25.6294 18.3545C25.6237 18.4005 25.6234 18.4215 25.623 18.4425C25.6137 18.4844 25.6044 18.5262 25.5877 18.5967C25.5521 18.7759 25.5237 18.9265 25.4955 19.0771C25.4877 19.1061 25.4799 19.1352 25.4643 19.1912C25.3955 19.4476 25.3388 19.6781 25.2727 19.9062C24.8341 21.422 24.0999 22.7938 23.1165 24.0439C22.981 24.216 22.8482 24.39 22.7142 24.5632C22.7142 24.5632 22.7154 24.5664 22.7013 24.5705C22.4031 24.8626 22.1185 25.1504 21.8351 25.4392C21.7986 25.4764 21.7684 25.5192 21.7353 25.5595C21.7353 25.5595 21.7448 25.565 21.7269 25.5653C21.61 25.6577 21.5111 25.7499 21.4122 25.8421C21.4122 25.8421 21.419 25.8469 21.403 25.847C20.6747 26.4203 19.9372 26.9574 19.0966 27.3798C19.0622 27.2634 19.0347 27.1704 19.0072 27.0774C18.995 27.0078 18.983 26.9382 18.9667 26.8387C18.935 26.7008 18.9072 26.5928 18.8795 26.4848C18.8777 26.4544 18.8758 26.4239 18.8704 26.3689C18.8577 26.325 18.8487 26.3057 18.8397 26.2863C18.8373 26.2559 18.8348 26.2254 18.8284 26.1708C18.8159 26.1271 18.8073 26.1077 18.7987 26.0882C18.7984 26.0703 18.7981 26.0524 18.7948 26.006C18.7526 25.8166 18.7135 25.6557 18.6743 25.4948C18.6707 25.4613 18.6672 25.4279 18.6588 25.3743C18.653 25.3446 18.6477 25.3382 18.6383 25.3349C18.6376 25.3171 18.6369 25.2993 18.6338 25.2533C18.6194 25.1609 18.6152 25.0941 18.5937 25.033C18.5552 24.9231 18.5827 24.8482 18.6857 24.7854C18.7996 24.7159 18.9093 24.638 19.0137 24.5554C19.264 24.3575 19.5102 24.1547 19.7581 23.954C19.7581 23.954 19.7753 23.948 19.7883 23.9402C19.8113 23.927 19.8156 23.9187 19.8142 23.9076C19.8411 23.8885 19.8682 23.8694 19.9138 23.8352C19.9938 23.758 20.0552 23.6958 20.1168 23.6336C20.1306 23.6321 20.1412 23.6257 20.1645 23.6004C20.3542 23.4115 20.5376 23.2446 20.6997 23.0602C20.8963 22.8365 21.0748 22.5981 21.2612 22.3661C21.2612 22.3661 21.2584 22.3634 21.2715 22.3589C21.4906 22.0394 21.6967 21.7245 21.9028 21.4095C21.9028 21.4095 21.911 21.405 21.9152 21.4009C21.9196 21.3969 21.9169 21.385 21.9169 21.385C21.9353 21.3563 21.9537 21.3275 21.9871 21.2749C22.0263 21.1994 22.0506 21.1476 22.0749 21.0958C22.0749 21.0958 22.0841 21.087 22.0948 21.0715C22.1502 20.9626 22.1949 20.8691 22.2463 20.7713C22.2615 20.7582 22.2631 20.7484 22.2578 20.7375C22.2802 20.6954 22.3026 20.6533 22.3361 20.5904C22.3511 20.5556 22.3551 20.5416 22.3654 20.5254C22.3789 20.515 22.3782 20.5075 22.3694 20.5008C22.4076 20.4187 22.4459 20.3366 22.4956 20.2304C22.5805 20.0012 22.6539 19.7961 22.7272 19.591C22.7323 19.578 22.7374 19.565 22.7516 19.5308C22.7989 19.3778 22.8371 19.246 22.8751 19.1141C22.8817 19.0972 22.8883 19.0802 22.9034 19.0388C22.9263 18.9419 22.9407 18.8695 22.9552 18.7972C22.9615 18.7798 22.9678 18.7625 22.9816 18.7199C23.0043 18.6099 23.0194 18.5251 23.0344 18.4403C23.0412 18.423 23.0478 18.4057 23.0618 18.3648C23.0705 18.3083 23.0717 18.2754 23.0731 18.2426C23.0809 18.2129 23.0887 18.1831 23.1034 18.1264C23.1146 18.0416 23.1192 17.9837 23.1236 17.9259C23.1283 17.9081 23.1328 17.8903 23.1443 17.8473C23.1545 17.7642 23.158 17.7064 23.1615 17.6485C23.1683 17.6062 23.175 17.5639 23.188 17.4933C23.1979 17.3942 23.2015 17.3233 23.2052 17.2525C23.2103 17.2224 23.2155 17.1923 23.2266 17.1338C23.2369 16.8625 23.2443 16.6197 23.2436 16.377C23.2433 16.2736 23.2259 16.1704 23.2162 16.067C23.216 16.0113 23.2157 15.9555 23.2149 15.8674C23.2014 15.7406 23.1886 15.6462 23.1758 15.5519C23.1745 15.5088 23.1731 15.4657 23.1698 15.3942C23.1577 15.3219 23.1476 15.2779 23.1375 15.234C23.1345 15.1783 23.1315 15.1225 23.1263 15.0395C23.1143 14.9807 23.1044 14.9492 23.0945 14.9178C23.0929 14.8855 23.0914 14.8532 23.0872 14.7952C23.0753 14.7413 23.0658 14.7133 23.0564 14.6853C23.0561 14.6722 23.056 14.6591 23.0506 14.6216C23.0257 14.5179 23.0059 14.4386 22.9862 14.3593C22.9613 14.2332 22.9363 14.1072 22.9076 13.9643C22.9039 13.9475 22.8924 13.9378 22.8924 13.9378C22.8902 13.9172 22.8881 13.8966 22.8818 13.8512C22.8671 13.8075 22.8567 13.7886 22.8463 13.7697C22.8428 13.7481 22.8392 13.7266 22.8309 13.6875C22.8253 13.6612 22.8202 13.6567 22.8111 13.6564C22.7903 13.5825 22.7695 13.5086 22.7413 13.4075C22.6926 13.2714 22.6512 13.1625 22.6097 13.0537C22.5916 12.9932 22.5734 12.9327 22.5449 12.8496C22.5143 12.781 22.4939 12.735 22.4736 12.6891C22.4736 12.6891 22.4715 12.672 22.463 12.6521C22.4399 12.6075 22.4252 12.5828 22.4105 12.5581C22.4105 12.5581 22.4142 12.5473 22.4098 12.5284C22.3302 12.3483 22.2621 12.1838 22.1786 12.0269C22.0707 11.824 21.9505 11.6273 21.8356 11.4279C21.8111 11.3822 21.7866 11.3365 21.7502 11.268C21.5246 10.9479 21.3109 10.6507 21.0972 10.3535C21.0978 10.3415 21.0937 10.3313 21.0724 10.3057C20.6625 9.79578 20.2203 9.34378 19.733 8.93401C19.5807 8.80594 19.4153 8.69248 19.256 8.57233C19.256 8.57233 19.2518 8.57585 19.2485 8.56264C19.21 8.51835 19.1774 8.48368 19.1391 8.45671C18.5255 8.02516 17.8813 7.64156 17.1846 7.35027C17.0447 7.29177 16.8654 7.31761 16.704 7.31436C16.6741 7.31376 16.638 7.35608 16.6134 7.38543C16.4032 7.63651 16.1936 7.88801 15.9866 8.14158C15.522 8.71081 15.0584 9.2807 14.5963 9.8519C14.5284 9.93595 14.4568 9.97267 14.3379 9.96897C14.0525 9.96008 13.7663 9.97451 13.4629 9.97462C13.3612 9.97317 13.2771 9.97663 13.178 9.97565C13.1325 9.97412 13.1018 9.97704 13.0528 9.97497C12.8141 9.97319 12.5939 9.97638 12.355 9.97514C12.0369 9.97113 11.7373 9.96904 11.4378 9.97336C11.334 9.97485 11.2543 9.9462 11.1908 9.86452C11.1048 9.7542 11.0126 9.64845 10.9232 9.54071C10.7444 9.32543 10.5656 9.11014 10.3868 8.88855C10.3823 8.8735 10.3752 8.86962 10.3652 8.87061Z" fill="#007AFF"/>
<path d="M17.372 25.2149C17.4025 25.3766 17.4329 25.5383 17.4673 25.7267C17.4807 25.7847 17.4902 25.816 17.4997 25.8472C17.5146 25.9307 17.5295 26.0141 17.5483 26.1219C17.561 26.1658 17.5696 26.1853 17.5781 26.2048C17.5854 26.2532 17.5925 26.3015 17.6033 26.3657C17.6071 26.3816 17.6173 26.3907 17.6173 26.3907C17.6207 26.4244 17.6242 26.4581 17.6316 26.517C17.6435 26.5618 17.6517 26.5815 17.6599 26.6011C17.6629 26.6318 17.6659 26.6625 17.6728 26.7167C17.6849 26.7599 17.693 26.7795 17.7011 26.7991C17.7077 26.8468 17.7143 26.8946 17.7246 26.9597C17.7281 26.977 17.7397 26.9872 17.7397 26.9872C17.7417 27.0088 17.7436 27.0304 17.749 27.0785C17.7632 27.135 17.7738 27.1649 17.7845 27.1948C17.7908 27.2428 17.797 27.2907 17.8066 27.3558C17.8099 27.3729 17.8215 27.3829 17.8215 27.3829C17.8228 27.4032 17.8242 27.4236 17.8289 27.4706C17.8436 27.5286 17.8547 27.5599 17.8658 27.5913C17.8727 27.6397 17.8797 27.6881 17.8903 27.7521C17.894 27.7677 17.9039 27.7768 17.9039 27.7768C17.9227 27.8768 17.9416 27.9769 17.9651 28.1053C17.9892 28.2038 18.0085 28.274 18.0278 28.3442C18.0306 28.3747 18.0334 28.4052 18.0397 28.4596C18.0513 28.5032 18.0596 28.5229 18.0678 28.5426C18.0913 28.6655 18.1148 28.7883 18.1427 28.941C18.1699 29.0674 18.1928 29.1641 18.2155 29.2607C18.2436 29.4249 18.2716 29.5891 18.2995 29.7735C18.2992 29.7937 18.3035 29.8017 18.3035 29.8017C18.2965 29.8093 18.2896 29.8168 18.2641 29.8425C18.2116 29.8962 18.1777 29.9319 18.1438 29.9676C18.1438 29.9676 18.1464 29.9696 18.1326 29.9731C18.0174 30.0792 17.9159 30.1819 17.8144 30.2846C17.8006 30.2854 17.7897 30.2913 17.766 30.315C17.7172 30.3659 17.684 30.4039 17.651 30.442C17.651 30.442 17.6544 30.445 17.641 30.4476C17.581 30.5004 17.5346 30.5507 17.4881 30.601C17.4881 30.601 17.4913 30.6033 17.4774 30.6066C17.2528 30.8183 17.0423 31.0268 16.8318 31.2353C16.8179 31.2366 16.8072 31.2429 16.7844 31.2677C16.736 31.3185 16.7026 31.3558 16.6692 31.3931C16.6692 31.3931 16.6725 31.3956 16.6585 31.3987C16.5242 31.5168 16.4025 31.6304 16.2841 31.747C16.0429 31.9846 15.8036 32.2238 15.5634 32.4624C15.5634 32.4624 15.5674 32.4646 15.5528 32.4667C15.3131 32.691 15.0878 32.9131 14.8625 33.1352C14.8494 33.1362 14.8394 33.142 14.8167 33.1658C14.7128 33.2692 14.6246 33.3595 14.5364 33.4498C14.5364 33.4498 14.5418 33.4533 14.5271 33.4544C14.4658 33.5063 14.4191 33.5571 14.3724 33.608C14.3724 33.608 14.3784 33.612 14.3633 33.613C14.3002 33.6652 14.2521 33.7164 14.2041 33.7677C13.9228 34.0329 13.6416 34.2981 13.343 34.5804C13.3031 34.6242 13.2806 34.6509 13.2581 34.6776C13.2468 34.6783 13.2381 34.6833 13.2171 34.7053C13.1141 34.8111 13.0263 34.9039 12.9384 34.9968C12.9218 34.9998 12.9053 35.0028 12.8694 34.9951C12.7886 34.9236 12.7271 34.8627 12.6823 34.802C12.8235 34.8113 12.8665 34.7511 12.8674 34.6356C12.8687 34.4342 12.8394 34.2345 12.8613 34.0309C12.8869 33.7919 12.8769 33.5495 12.8841 33.3087C12.8875 33.1939 12.8986 33.0793 12.8998 32.9646C12.9013 32.8429 12.8963 32.721 12.8921 32.5993C12.8861 32.4256 12.8706 32.2519 12.8733 32.0783C12.8764 31.8819 12.8998 31.6858 12.9053 31.4894C12.9099 31.3248 12.9035 31.1598 12.8984 30.995C12.8899 30.7283 12.872 30.4618 12.8709 30.1951C12.8702 30.0385 12.9025 29.8819 12.9051 29.725C12.9107 29.3754 12.9023 29.0255 12.9085 28.6759C12.9121 28.4729 12.9344 28.2702 12.9452 28.0673C12.9487 28.0017 12.9453 27.9354 12.9398 27.8699C12.9311 27.7657 12.9083 27.6618 12.9082 27.5578C12.9063 25.1757 12.9067 22.7937 12.9066 20.4116C12.9066 20.3457 12.9224 20.2739 12.9014 20.2147C12.7951 19.9178 12.9243 19.618 12.88 19.3177C12.8535 19.1389 12.9262 18.9491 12.8693 18.7635C12.8584 18.7276 12.8687 18.6849 12.8723 18.6456C12.883 18.5284 12.906 18.4112 12.9052 18.2941C12.8939 16.7551 12.9337 15.216 12.8689 13.6771C12.8301 12.7558 12.9123 11.8322 12.8262 10.9109C12.8097 10.7347 12.8037 10.7181 12.6237 10.6719C12.5778 10.6601 12.5327 10.6444 12.4861 10.6376C12.4011 10.6251 12.3727 10.5744 12.3933 10.4942C13.0125 10.4893 13.6129 10.489 14.2173 10.4945C14.234 10.4998 14.2466 10.4995 14.266 10.501C14.2727 10.5029 14.2868 10.5031 14.2868 10.5031C14.2972 10.5651 14.3076 10.6271 14.3218 10.7124C14.3328 10.7551 14.34 10.7745 14.3472 10.7939C14.3506 10.8249 14.354 10.8558 14.3611 10.9103C14.3725 10.9531 14.3803 10.9725 14.3881 10.9919C14.418 11.1411 14.4479 11.2902 14.4817 11.4638C14.4936 11.5079 14.5016 11.5274 14.5095 11.5469C14.513 11.5778 14.5164 11.6086 14.5237 11.663C14.5356 11.7058 14.5436 11.7252 14.5517 11.7446C14.5692 11.8411 14.5866 11.9375 14.6081 12.0582C14.6198 12.1017 14.6273 12.121 14.635 12.1404C14.6363 12.1591 14.6378 12.1778 14.6428 12.219C14.6546 12.2611 14.6627 12.2807 14.6707 12.3003C14.6715 12.3184 14.6721 12.3365 14.6757 12.3796C14.6892 12.436 14.6999 12.4674 14.7104 12.4988C14.7564 12.7395 14.8025 12.9803 14.8525 13.246C14.8641 13.2904 14.8716 13.3098 14.8792 13.3292C14.8804 13.3478 14.8816 13.3664 14.8863 13.4076C14.8988 13.4497 14.9078 13.4692 14.9168 13.4887C14.9339 13.5849 14.9511 13.6811 14.9723 13.8015C14.9841 13.8453 14.9919 13.8649 14.9999 13.8845C15.0024 13.9152 15.005 13.9458 15.0112 14.0003C15.023 14.0437 15.0312 14.0634 15.0393 14.083C15.0402 14.1011 15.041 14.1193 15.0451 14.1623C15.0599 14.2182 15.0713 14.2492 15.0826 14.2803C15.0897 14.3293 15.0966 14.3783 15.1086 14.4412C15.1135 14.4552 15.1206 14.4636 15.1206 14.4636C15.1249 14.4982 15.1292 14.5328 15.1379 14.5926C15.15 14.6373 15.1578 14.6568 15.1654 14.6762C15.1687 14.7072 15.172 14.7381 15.1792 14.7926C15.1911 14.8354 15.1991 14.8547 15.2071 14.8741C15.2087 14.8927 15.2102 14.9114 15.2153 14.9525C15.2269 14.9946 15.2349 15.0144 15.2429 15.0341C15.2479 15.0774 15.2528 15.1206 15.262 15.188C15.2742 15.2314 15.2821 15.2506 15.2899 15.2699C15.309 15.3678 15.3283 15.4657 15.3532 15.5921C15.3762 15.6888 15.3934 15.7569 15.4106 15.825C15.4312 15.9401 15.4516 16.0552 15.4759 16.1849C15.4797 16.1995 15.4889 16.2085 15.4889 16.2085C15.4928 16.2425 15.4965 16.2766 15.505 16.3399C15.5307 16.4521 15.5516 16.5351 15.5724 16.618C15.5894 16.7143 15.6063 16.8105 15.6276 16.931C15.6399 16.9747 15.6479 16.9942 15.6558 17.0137C15.6589 17.0447 15.6619 17.0756 15.6701 17.134C15.6963 17.2442 15.7176 17.3268 15.7389 17.4094C15.742 17.4404 15.7452 17.4714 15.7522 17.5259C15.7636 17.5689 15.7711 17.5885 15.7786 17.608C15.7821 17.6388 15.7856 17.6697 15.793 17.724C15.8049 17.7669 15.8129 17.7863 15.8207 17.8057C15.8242 17.8363 15.8275 17.8669 15.8355 17.9243C15.8595 18.022 15.8786 18.0928 15.8977 18.1637C15.9003 18.194 15.9028 18.2243 15.9089 18.2805C15.923 18.3374 15.9337 18.3685 15.9442 18.3996C15.9477 18.4307 15.9513 18.4617 15.9588 18.5162C15.9703 18.559 15.9776 18.5785 15.9849 18.5979C15.9971 18.668 16.0093 18.7381 16.025 18.8351C16.0394 18.8933 16.0503 18.9247 16.0613 18.956C16.0665 18.9993 16.0715 19.0425 16.0811 19.1099C16.0929 19.1533 16.1004 19.1727 16.1078 19.1921C16.1125 19.2264 16.1171 19.2607 16.1255 19.3137C16.1293 19.3408 16.1336 19.3456 16.1424 19.3466C16.1554 19.4181 16.1684 19.4895 16.1849 19.5892C16.2016 19.6607 16.2148 19.704 16.2279 19.7474C16.2447 19.8437 16.2616 19.94 16.2826 20.0605C16.2944 20.1044 16.3021 20.124 16.3097 20.1436C16.3128 20.1743 16.3159 20.2049 16.3236 20.2631C16.3493 20.3737 16.3705 20.4567 16.3916 20.5397C16.3983 20.5875 16.4049 20.6353 16.4149 20.7006C16.4183 20.7181 16.4298 20.729 16.4298 20.729C16.437 20.7788 16.4443 20.8287 16.455 20.8975C16.4585 20.9165 16.4705 20.9283 16.4705 20.9283C16.4809 20.9881 16.4915 21.0479 16.5067 21.1361C16.5267 21.2202 16.5421 21.2758 16.5575 21.3315C16.5607 21.3624 16.564 21.3934 16.5717 21.4478C16.5838 21.4906 16.5915 21.5099 16.5993 21.5293C16.6252 21.665 16.6511 21.8008 16.6805 21.964C16.6946 22.0228 16.7056 22.0542 16.7164 22.0855C16.7212 22.1287 16.7258 22.1719 16.7349 22.2393C16.7469 22.2829 16.7547 22.3023 16.7625 22.3217C16.7886 22.4573 16.8146 22.5929 16.8441 22.7561C16.8586 22.8152 16.8699 22.8466 16.881 22.8781C16.9022 22.9926 16.9235 23.1072 16.9487 23.2366C16.9528 23.2514 16.9625 23.2604 16.9625 23.2604C16.9941 23.4266 17.0258 23.5928 17.0615 23.7838C17.0733 23.828 17.0812 23.8475 17.0891 23.8669C17.0929 23.8979 17.0968 23.9288 17.1046 23.9831C17.1158 24.0259 17.1233 24.0454 17.1307 24.0648C17.1339 24.0956 17.137 24.1265 17.1448 24.1843C17.169 24.2817 17.1889 24.352 17.2087 24.4224C17.2118 24.4529 17.215 24.4834 17.2215 24.5377C17.2334 24.5812 17.2418 24.6008 17.2503 24.6204C17.2772 24.769 17.3041 24.9176 17.3348 25.0937C17.3497 25.1524 17.3608 25.1836 17.372 25.2149Z" fill="#006CE2"/>
<path d="M12.3748 10.4989C12.3729 10.5745 12.4013 10.6252 12.4863 10.6377C12.5329 10.6445 12.578 10.6602 12.6239 10.6719C12.8038 10.7181 12.8099 10.7348 12.8264 10.911C12.9125 11.8323 12.8303 12.7559 12.8691 13.6772C12.9339 15.2161 12.8941 16.7552 12.9054 18.2942C12.9062 18.4112 12.8832 18.5284 12.8725 18.6457C12.8689 18.685 12.8586 18.7276 12.8696 18.7635C12.9263 18.9492 12.8537 19.1389 12.8801 19.3178C12.9245 19.6181 12.7954 19.9178 12.9015 20.2148C12.9227 20.274 12.9068 20.3458 12.9069 20.4117C12.907 22.7938 12.9065 25.1758 12.9084 27.5579C12.9085 27.6619 12.9312 27.7658 12.94 27.87C12.9455 27.9355 12.9489 28.0018 12.9454 28.0674C12.9347 28.2703 12.9123 28.473 12.9087 28.676C12.9025 29.0256 12.9108 29.3755 12.9053 29.7251C12.9027 29.8819 12.8704 30.0385 12.8711 30.1952C12.8722 30.4618 12.8901 30.7284 12.8986 30.9951C12.9038 31.1598 12.9102 31.3248 12.9055 31.4894C12.9 31.6859 12.8765 31.882 12.8735 32.0784C12.8708 32.252 12.8863 32.4257 12.8923 32.5994C12.8965 32.7211 12.9015 32.843 12.9 32.9647C12.8988 33.0794 12.8877 33.194 12.8843 33.3087C12.8771 33.5496 12.8871 33.792 12.8615 34.0309C12.8396 34.2346 12.8689 34.4343 12.8676 34.6357C12.8668 34.7512 12.8237 34.8113 12.6733 34.7942C12.6269 34.773 12.6065 34.7599 12.5859 34.7468C12.5851 34.7359 12.5799 34.7275 12.5572 34.7075C12.5028 34.6598 12.4617 34.6263 12.4207 34.5929C12.3069 34.4807 12.1931 34.3685 12.063 34.239C12.0208 34.2013 11.9948 34.181 11.9689 34.1606C11.8967 34.0867 11.8244 34.0127 11.7356 33.9212C11.6795 33.8707 11.6399 33.8376 11.6004 33.8045C11.599 33.7918 11.5928 33.7819 11.568 33.7598C11.4604 33.6593 11.3664 33.5739 11.2724 33.4886C11.2536 33.4662 11.2348 33.4439 11.2013 33.4058C11.1606 33.37 11.1347 33.35 11.1088 33.3299C11.1074 33.3171 11.1011 33.3071 11.0768 33.2857C11.0379 33.2512 11.0118 33.2312 10.9859 33.2112C10.9403 33.1631 10.8947 33.1151 10.8333 33.05C10.7778 33.0003 10.7383 32.9678 10.6988 32.9352C10.6389 32.874 10.579 32.8128 10.502 32.7344C10.4198 32.6579 10.3546 32.5988 10.2895 32.5396C9.94438 32.2008 9.59926 31.862 9.23729 31.5051C9.14039 31.4146 9.06033 31.3422 8.98028 31.2698C8.94685 31.2351 8.91342 31.2004 8.86367 31.15C8.81537 31.1105 8.78339 31.0865 8.75142 31.0625C8.75142 31.0625 8.74763 31.0633 8.74446 31.0505C8.71096 31.0115 8.68062 30.9854 8.6503 30.9592C8.6481 30.9453 8.64093 30.9345 8.61462 30.9118C8.56256 30.8646 8.52468 30.8323 8.48681 30.8C8.42735 30.7375 8.3679 30.675 8.29152 30.5959C8.23627 30.547 8.19794 30.5148 8.15962 30.4825C8.15769 30.4688 8.15071 30.4581 8.12455 30.4357C8.07225 30.3886 8.03411 30.3563 7.99596 30.324C7.99398 30.3103 7.987 30.2996 7.96087 30.2772C7.90842 30.2305 7.87013 30.1985 7.83183 30.1666C7.77153 30.1043 7.71122 30.0421 7.63274 29.9614C7.49767 29.8568 7.46797 29.7449 7.50459 29.6101C7.51462 29.5732 7.5108 29.5328 7.51333 29.4939C7.52401 29.4519 7.53471 29.4099 7.55198 29.3417C7.56243 29.2825 7.56631 29.2495 7.57019 29.2165C7.57539 29.1991 7.5806 29.1817 7.59313 29.1387C7.62772 28.9626 7.65497 28.8123 7.68221 28.6619C7.69091 28.6325 7.69961 28.6031 7.71454 28.5501C7.72208 28.5056 7.72341 28.4846 7.72472 28.4636C7.73319 28.4342 7.74166 28.4049 7.75765 28.3487C7.79101 28.1843 7.81683 28.0468 7.84265 27.9093C7.85184 27.8797 7.86102 27.8502 7.87591 27.7968C7.88143 27.7524 7.88124 27.7317 7.88105 27.7111C7.89105 27.6816 7.90105 27.6521 7.9181 27.5952C7.94239 27.4701 7.95963 27.3724 7.97687 27.2747C7.98243 27.2574 7.988 27.2401 8.00041 27.1993C8.01035 27.1429 8.01344 27.1101 8.01654 27.0772C8.0237 27.0479 8.03086 27.0185 8.04449 26.966C8.05332 26.9215 8.05566 26.9003 8.05801 26.8791C8.06354 26.8615 8.06907 26.844 8.08168 26.8005C8.12086 26.6113 8.15296 26.4482 8.18506 26.2851C8.19013 26.2676 8.1952 26.2502 8.20634 26.2111C8.2144 26.1684 8.21637 26.1473 8.21833 26.1263C8.22633 26.097 8.23433 26.0678 8.24984 26.0115C8.28613 25.8337 8.31489 25.683 8.34365 25.5322C8.34921 25.5147 8.35477 25.4971 8.36696 25.4558C8.3776 25.3994 8.38162 25.3668 8.38564 25.3341C8.39111 25.3166 8.39657 25.299 8.40901 25.2551C8.4476 25.0527 8.4792 24.8766 8.51079 24.7005C8.51594 24.6829 8.5211 24.6654 8.53396 24.6223C8.58528 24.3804 8.6289 24.1641 8.67251 23.9477C8.67808 23.9303 8.68365 23.9128 8.69666 23.8693C8.76046 23.5611 8.81682 23.279 8.87319 22.9969C8.88112 22.9676 8.88907 22.9384 8.90462 22.882C8.92623 22.7978 8.94267 22.7414 8.95383 22.6839C9.02078 22.3394 9.08651 21.9947 9.15264 21.65C9.16165 21.6205 9.17066 21.5909 9.18704 21.5336C9.23031 21.3161 9.2662 21.1265 9.3021 20.9368C9.3021 20.9368 9.30478 20.9354 9.30891 20.9318C9.31304 20.9283 9.31623 20.9184 9.31623 20.9184L9.30745 20.9123C9.31968 20.8663 9.33191 20.8202 9.35013 20.748C9.35757 20.701 9.35903 20.6802 9.36048 20.6595C9.36912 20.6301 9.37776 20.6007 9.39383 20.5439C9.42694 20.3794 9.45263 20.2424 9.47833 20.1053C9.48931 20.0635 9.5003 20.0217 9.51786 19.9554C9.52692 19.9097 9.5294 19.8885 9.53187 19.8672C9.53895 19.838 9.54604 19.8088 9.56109 19.7527C9.61092 19.5089 9.65279 19.292 9.69468 19.0751C9.70193 19.0458 9.70919 19.0165 9.72409 18.96C9.76063 18.7822 9.78953 18.6315 9.81842 18.4808C9.82533 18.4515 9.83224 18.4222 9.84565 18.3696C9.85457 18.3252 9.857 18.3039 9.85943 18.2827C9.8647 18.2652 9.86997 18.2477 9.88269 18.2043C9.91878 18.0284 9.94741 17.8782 9.97603 17.7281C9.98416 17.6987 9.9923 17.6692 10.0067 17.6163C10.0143 17.5719 10.0158 17.5509 10.0172 17.5299C10.0258 17.5007 10.0343 17.4714 10.0505 17.4148C10.0868 17.237 10.1155 17.0864 10.1442 16.9359C10.1512 16.9064 10.1581 16.8769 10.1726 16.82C10.2195 16.5895 10.2589 16.3864 10.2983 16.1833C10.3073 16.1539 10.3164 16.1244 10.3311 16.0659C10.3827 15.8084 10.4287 15.5799 10.4747 15.3514C10.4797 15.3338 10.4846 15.3162 10.4956 15.2766C10.502 15.2341 10.5027 15.2134 10.5033 15.1927C10.5126 15.1635 10.5219 15.1342 10.5382 15.0775C10.5636 14.9522 10.582 14.8545 10.6002 14.7567C10.6053 14.7394 10.6103 14.7221 10.6212 14.683C10.6274 14.6403 10.6278 14.6194 10.6281 14.5985C10.6369 14.5691 10.6457 14.5396 10.6611 14.4847C10.672 14.4265 10.6762 14.3937 10.6803 14.3609C10.6858 14.3436 10.6912 14.3262 10.7042 14.2831C10.7741 13.9708 10.8376 13.6845 10.8981 13.3976C10.922 13.2836 10.9391 13.1683 10.9593 13.0536C10.9673 13.0242 10.9752 12.9947 10.9901 12.9401C11.0007 12.882 11.0043 12.849 11.0079 12.816C11.0132 12.7985 11.0185 12.7811 11.0315 12.7381C11.0694 12.5489 11.0998 12.3854 11.13 12.2218C11.1351 12.2042 11.1401 12.1865 11.1526 12.1432C11.2019 11.9014 11.2436 11.6852 11.2853 11.469C11.2937 11.4395 11.302 11.41 11.3183 11.3535C11.3737 11.1369 11.4211 10.9472 11.4811 10.7501C11.606 10.6406 11.7351 10.5862 11.8931 10.5968C11.994 10.6036 12.0959 10.5967 12.1973 10.5981C12.2676 10.599 12.2928 10.562 12.3063 10.4954C12.338 10.4933 12.3564 10.4961 12.3748 10.4989Z" fill="#007AFF"/>
<path d="M41.252 28V11.144H34.672V7.84H52.144V11.144H45.564V28H41.252ZM57.9313 28.28C56.3446 28.28 54.9633 27.972 53.7873 27.356C52.6113 26.7213 51.6966 25.844 51.0433 24.724C50.4086 23.604 50.0913 22.316 50.0913 20.86C50.0913 19.3853 50.4086 18.0973 51.0433 16.996C51.6966 15.876 52.6019 15.008 53.7593 14.392C54.9166 13.7573 56.2606 13.44 57.7913 13.44C59.2659 13.44 60.5446 13.7387 61.6273 14.336C62.7099 14.9333 63.5499 15.764 64.1473 16.828C64.7446 17.892 65.0433 19.1427 65.0433 20.58C65.0433 20.8787 65.0339 21.1587 65.0153 21.42C64.9966 21.6627 64.9686 21.896 64.9313 22.12H52.5553V19.348H61.5433L60.8153 19.852C60.8153 18.6947 60.5353 17.8453 59.9753 17.304C59.4339 16.744 58.6873 16.464 57.7353 16.464C56.6339 16.464 55.7753 16.8373 55.1593 17.584C54.5619 18.3307 54.2633 19.4507 54.2633 20.944C54.2633 22.4 54.5619 23.4827 55.1593 24.192C55.7753 24.9013 56.6899 25.256 57.9033 25.256C58.5753 25.256 59.1539 25.144 59.6393 24.92C60.1246 24.696 60.4886 24.332 60.7313 23.828H64.6793C64.2126 25.2093 63.4099 26.3013 62.2713 27.104C61.1513 27.888 59.7046 28.28 57.9313 28.28ZM74.0308 28.28C72.5375 28.28 71.2215 27.9627 70.0828 27.328C68.9441 26.6933 68.0481 25.816 67.3948 24.696C66.7601 23.576 66.4428 22.2973 66.4428 20.86C66.4428 19.4227 66.7601 18.144 67.3948 17.024C68.0481 15.904 68.9441 15.0267 70.0828 14.392C71.2215 13.7573 72.5375 13.44 74.0308 13.44C75.2815 13.44 76.4015 13.6733 77.3908 14.14C78.3988 14.588 79.2201 15.2133 79.8548 16.016C80.5081 16.8187 80.9281 17.7613 81.1148 18.844H77.0548C76.8495 18.1533 76.4761 17.6307 75.9348 17.276C75.4121 16.9213 74.7961 16.744 74.0868 16.744C73.4148 16.744 72.8268 16.912 72.3228 17.248C71.8375 17.584 71.4641 18.06 71.2028 18.676C70.9415 19.292 70.8108 20.02 70.8108 20.86C70.8108 21.7 70.9415 22.428 71.2028 23.044C71.4641 23.66 71.8375 24.136 72.3228 24.472C72.8268 24.808 73.4148 24.976 74.0868 24.976C74.7961 24.976 75.4121 24.7987 75.9348 24.444C76.4761 24.0893 76.8495 23.5667 77.0548 22.876H81.1148C80.9281 23.9587 80.5081 24.9013 79.8548 25.704C79.2201 26.5067 78.3988 27.1413 77.3908 27.608C76.4015 28.056 75.2815 28.28 74.0308 28.28ZM83.2855 28V7.84H87.4855V28H83.2855ZM93.2255 28V19.152C93.2255 18.368 93.0201 17.78 92.6095 17.388C92.2175 16.996 91.6388 16.8 90.8735 16.8C90.2201 16.8 89.6321 16.9493 89.1095 17.248C88.6055 17.5467 88.2041 17.9573 87.9055 18.48C87.6255 19.0027 87.4855 19.6187 87.4855 20.328L87.1215 16.884C87.5881 15.8387 88.2695 15.008 89.1655 14.392C90.0801 13.7573 91.2001 13.44 92.5255 13.44C94.1121 13.44 95.3255 13.888 96.1655 14.784C97.0055 15.6613 97.4255 16.8467 97.4255 18.34V28H93.2255ZM99.6265 28V25.088L107.579 15.428L108.419 16.912H99.8505V13.72H111.779V16.632L103.995 26.096L103.211 24.808H111.891V28H99.6265ZM120.849 28.28C119.263 28.28 117.881 27.972 116.705 27.356C115.529 26.7213 114.615 25.844 113.961 24.724C113.327 23.604 113.009 22.316 113.009 20.86C113.009 19.3853 113.327 18.0973 113.961 16.996C114.615 15.876 115.52 15.008 116.677 14.392C117.835 13.7573 119.179 13.44 120.709 13.44C122.184 13.44 123.463 13.7387 124.545 14.336C125.628 14.9333 126.468 15.764 127.065 16.828C127.663 17.892 127.961 19.1427 127.961 20.58C127.961 20.8787 127.952 21.1587 127.933 21.42C127.915 21.6627 127.887 21.896 127.849 22.12H115.473V19.348H124.461L123.733 19.852C123.733 18.6947 123.453 17.8453 122.893 17.304C122.352 16.744 121.605 16.464 120.653 16.464C119.552 16.464 118.693 16.8373 118.077 17.584C117.48 18.3307 117.181 19.4507 117.181 20.944C117.181 22.4 117.48 23.4827 118.077 24.192C118.693 24.9013 119.608 25.256 120.821 25.256C121.493 25.256 122.072 25.144 122.557 24.92C123.043 24.696 123.407 24.332 123.649 23.828H127.597C127.131 25.2093 126.328 26.3013 125.189 27.104C124.069 27.888 122.623 28.28 120.849 28.28ZM130.207 28V13.72H134.323V17.08H134.407V28H130.207ZM140.147 28V19.152C140.147 18.368 139.942 17.78 139.531 17.388C139.139 16.996 138.561 16.8 137.795 16.8C137.142 16.8 136.554 16.9493 136.031 17.248C135.527 17.5467 135.126 17.9573 134.827 18.48C134.547 19.0027 134.407 19.6187 134.407 20.328L134.043 16.884C134.51 15.8387 135.191 15.008 136.087 14.392C137.002 13.7573 138.122 13.44 139.447 13.44C141.034 13.44 142.247 13.888 143.087 14.784C143.927 15.6613 144.347 16.8467 144.347 18.34V28H140.147Z" fill="black"/>
</svg>
